<svg width="19" height="20" viewBox="0 0 19 20" fill="none" xmlns="http://www.w3.org/2000/svg">
<path d="M13.8774 12.172C13.8774 13.012 14.1045 13.347 14.6982 13.347C16.0216 13.347 16.8642 11.572 16.8642 8.62001C16.8642 4.10801 13.7406 1.94801 9.84088 1.94801C5.82903 1.94801 2.18008 4.78001 2.18008 10.132C2.18008 15.244 5.37208 18.028 10.2741 18.028C11.9385 18.028 13.0557 17.836 14.7647 17.236L15.1314 18.843C13.4442 19.42 11.6411 19.587 10.2513 19.587C3.82168 19.587 0.37793 15.867 0.37793 10.131C0.37793 4.34701 4.36888 0.411011 9.86368 0.411011C15.5865 0.411011 18.6179 4.01101 18.6179 8.42701C18.6179 12.171 17.5017 15.027 13.9905 15.027C12.3935 15.027 11.3457 14.355 11.2089 12.866C10.7985 14.522 9.70408 15.027 8.22113 15.027C6.23753 15.027 4.57313 13.418 4.57313 10.179C4.57313 6.91501 6.03328 4.89901 8.65528 4.89901C10.0461 4.89901 10.9125 5.47501 11.2982 6.38701L11.9603 5.11501H13.8755V12.172H13.8774ZM11.074 9.00401C11.074 7.68501 10.1382 7.13201 9.36303 7.13201C8.51943 7.13201 7.58558 7.85101 7.58558 9.96401C7.58558 11.644 8.29238 12.58 9.36303 12.58C10.1154 12.58 11.074 12.076 11.074 10.684V9.00401Z" fill="white"/>
</svg>
