<svg width="20" height="31" viewBox="0 0 20 31" fill="none" xmlns="http://www.w3.org/2000/svg">
<path d="M5.02213 30.0001H14.9937M1.96923 14.4938C-0.130591 11.0413 1.38177 5.21891 4.58352 2.826C6.13663 1.64028 8.01918 1.00012 9.95302 1.00012C11.8869 1.00012 13.7694 1.64028 15.3225 2.826C18.7425 5.51932 20.1002 10.9372 18.0004 14.389L9.95302 27.6221L1.96923 14.4938ZM14.0052 10.9989C14.0052 13.2704 12.2159 15.1118 10.0087 15.1118C7.8014 15.1118 6.01206 13.2704 6.01206 10.9989C6.01206 8.72745 7.8014 6.88606 10.0087 6.88606C12.2159 6.88606 14.0052 8.72745 14.0052 10.9989Z" stroke="white" stroke-width="1.68405" stroke-linecap="round" stroke-linejoin="round"/>
</svg>
