<svg width="19" height="30" viewBox="0 0 19 30" fill="none" xmlns="http://www.w3.org/2000/svg">
<path d="M15.2 1.87512C15.7039 1.87512 16.1872 2.07267 16.5435 2.4243C16.8998 2.77593 17.1 3.25284 17.1 3.75012V26.2501C17.1 26.7474 16.8998 27.2243 16.5435 27.5759C16.1872 27.9276 15.7039 28.1251 15.2 28.1251H3.8C3.29609 28.1251 2.81282 27.9276 2.4565 27.5759C2.10018 27.2243 1.9 26.7474 1.9 26.2501V3.75012C1.9 3.25284 2.10018 2.77593 2.4565 2.4243C2.81282 2.07267 3.29609 1.87512 3.8 1.87512H15.2ZM3.8 0.00012207C2.79218 0.00012207 1.82563 0.39521 1.11299 1.09847C0.400356 1.80173 0 2.75556 0 3.75012V26.2501C0 27.2447 0.400356 28.1985 1.11299 28.9018C1.82563 29.605 2.79218 30.0001 3.8 30.0001H15.2C16.2078 30.0001 17.1744 29.605 17.887 28.9018C18.5996 28.1985 19 27.2447 19 26.2501V3.75012C19 2.75556 18.5996 1.80173 17.887 1.09847C17.1744 0.39521 16.2078 0.00012207 15.2 0.00012207H3.8Z" fill="white"/>
<path d="M9.5 26.2501C10.0039 26.2501 10.4872 26.0526 10.8435 25.7009C11.1998 25.3493 11.4 24.8724 11.4 24.3751C11.4 23.8778 11.1998 23.4009 10.8435 23.0493C10.4872 22.6977 10.0039 22.5001 9.5 22.5001C8.99609 22.5001 8.51282 22.6977 8.1565 23.0493C7.80018 23.4009 7.6 23.8778 7.6 24.3751C7.6 24.8724 7.80018 25.3493 8.1565 25.7009C8.51282 26.0526 8.99609 26.2501 9.5 26.2501Z" fill="white"/>
</svg>
